<svg xmlns="http://www.w3.org/2000/svg" preserveAspectRatio="none"
    viewBox="1.0000277757644653 1.593235731124878 754.5991390943527 819.9066879749298" width="754.5991390943527"
    height="702.4666879749298">
    <path fill="rgb(255, 255, 255)" fill-rule="nonzero"
        d="M710.0325931310654 294.99984407424927C710.0325931310654 294.99984407424927 722.1933264732361 294.99984407424927 722.1933264732361 294.99984407424927C729.8695851564407 289.02405762672424 741.0528321266174 286.4214689731598 755.5991668701172 293.6874372959137C755.5991668701172 294.48123383522034 754.3471117019653 295.46105456352234 751.9999552965164 296.60099959373474C751.9999552965164 296.60099959373474 751.9999552965164 821.4999237060547 751.9999552965164 821.4999237060547C751.9999552965164 821.4999237060547 1.0000277757644653 821.4999237060547 1.0000277757644653 821.4999237060547C1.0000277757644653 821.4999237060547 1.0000277757644653 294.99984407424927 1.0000277757644653 294.99984407424927C1.0000277757644653 294.99984407424927 2.0986605882644653 294.99984407424927 2.0986605882644653 294.99984407424927C1.5062053203582764 294.519296169281 1.195292592048645 294.0802230834961 1.195292592048645 293.6874372959137C15.741493225097656 286.4214689731598 26.92469549179077 289.02405762672424 34.600998878479004 294.99984407424927C34.600998878479004 294.99984407424927 46.77134346961975 294.99984407424927 46.77134346961975 294.99984407424927C49.192394733428955 292.3024933338165 51.86990988254547 289.848566532135 54.77635157108307 287.6551260948181C54.77635157108307 287.6551260948181 62.40191650390625 280.42914509773254 62.40191650390625 280.42914509773254C61.256479144096375 281.34911608695984 45.33752393722534 292.3388056755066 35.52855145931244 290.72793769836426C29.26268768310547 289.6991171836853 22.569145679473877 285.2792489528656 19.905890941619873 279.771497964859C17.67205786705017 275.15204310417175 18.8532133102417 269.50149273872375 19.861410975456238 267.0289285182953C24.057905793190002 256.72838592529297 35.26976299285889 256.0146515369415 40.9556884765625 262.58036041259766C41.43061828613281 263.1288080215454 41.86679017543793 263.7284429073334 42.25731980800629 264.37690258026123C42.26152193546295 264.3839900493622 42.265947580337524 264.3906400203705 42.27014970779419 264.3975524902344C45.71584951877594 270.1380524635315 42.81709682941437 277.4101457595825 36.88226234912872 278.7277150154114C36.816548228263855 278.74232745170593 36.75244343280792 278.76035237312317 36.685924649238586 278.7733898162842C36.26267206668854 278.8574769496918 35.85399281978607 278.90630173683167 35.45787525177002 278.9287016391754C30.97648513317108 279.18288803100586 28.288017630577087 275.6808032989502 28.804253458976746 272.4901297092438C29.176901698112488 270.1895022392273 31.365897178649902 268.1535611152649 33.84059262275696 268.4535973072052C31.294148087501526 268.81619572639465 30.168022632598877 270.856249332428 30.00503373146057 272.4830422401428C29.665823698043823 275.904189825058 32.59166669845581 277.74894428253174 35.48085284233093 277.22867155075073C35.98318588733673 277.1381094455719 36.48435664176941 276.97667264938354 36.96706485748291 276.7390236854553C38.69065237045288 275.89027738571167 40.17914426326752 274.07737278938293 40.64245116710663 271.1095607280731C40.86105120182037 269.70501685142517 40.70847821235657 268.288223028183 40.21888566017151 266.99034118652344C39.962645292282104 266.31116914749146 39.61462867259979 265.66428446769714 39.17729449272156 265.06946206092834C37.72358191013336 263.09223318099976 35.294305205345154 261.6862018108368 32.051738023757935 261.54882740974426C27.934144854545593 261.3752281665802 24.26582169532776 263.76738023757935 22.329445600509644 267.43466424942017C19.222687602043152 273.3275010585785 21.742444157600403 281.4597156047821 29.57534384727478 286.0806579589844C32.117809772491455 287.5805764198303 38.6256982088089 288.9065456390381 43.24267399311066 287.70552587509155C45.89470815658569 287.0156788825989 48.64066433906555 285.9212336540222 51.43740367889404 284.73981380462646C51.698606133461 284.58738946914673 55.72996628284454 282.23566222190857 62.00995635986328 278.5743281841278C68.50523841381073 274.7877821922302 71.04323399066925 273.1602017879486 77.10042190551758 272.0542941093445C80.57097685337067 271.4207968711853 85.88876914978027 272.797078371048 90.06608617305756 274.23469710350037C91.99910950660706 274.00973558425903 93.94335341453552 273.8252863883972 95.90690922737122 273.7287743091583C108.6865622997284 273.1009645462036 120.75417828559875 263.4631440639496 132.58044016361237 251.22982239723206C132.58044016361237 251.22982239723206 143.0091370344162 227.97548627853394 143.0091370344162 227.97548627853394C141.59257304668427 230.5474500656128 120.52896213531494 262.9821586608887 101.16068613529205 267.4651141166687C88.78828179836273 270.3288016319275 73.04071974754333 267.24706506729126 63.917275190353394 259.08737564086914C56.26497757434845 252.2435929775238 54.14236676692963 240.8950674533844 54.12216079235077 235.55514073371887C54.031680941581726 213.31326270103455 74.22254574298859 203.46421813964844 89.7423882484436 211.2815215587616C91.03883397579193 211.93435621261597 92.30255675315857 212.71126532554626 93.51925146579742 213.61391139030457C93.53221547603607 213.6235363483429 93.54549241065979 213.63237380981445 93.55850112438202 213.6420862674713C104.30638086795807 221.637188911438 104.48850286006927 237.29122066497803 94.51716732978821 244.2426278591156C94.40679442882538 244.3195400238037 94.3018753528595 244.40143966674805 94.18886494636536 244.4764268398285C93.47021174430847 244.9536497592926 92.75160324573517 245.35466051101685 92.03612399101257 245.69774651527405C83.94224536418915 249.57704210281372 76.30067658424377 245.1455364227295 74.82344996929169 238.85203886032104C73.75910472869873 234.31378364562988 76.25543665885925 228.88346982002258 81.06083762645721 227.55583810806274C76.62786138057709 230.16376423835754 76.10013675689697 234.79293155670166 77.03895461559296 237.92568039894104C79.0190954208374 244.51037669181824 85.83628726005554 245.6964340209961 90.78286182880402 242.5362102985382C91.64291214942932 241.98662519454956 92.44645726680756 241.3069281578064 93.15804731845856 240.50018167495728C95.69881451129913 237.61934423446655 97.06973624229431 233.13437628746033 95.66434812545776 227.29342675209045C94.9979532957077 224.52940130233765 93.63583815097809 222.02516222000122 91.74125981330872 219.9975335597992C90.74969184398651 218.93607568740845 89.61301636695862 218.00472974777222 88.35090291500092 217.23744559288025C84.1552574634552 214.68674421310425 78.59105956554413 213.93442249298096 72.48952579498291 216.14720034599304C64.74232268333435 218.95838809013367 59.78166651725769 226.17290663719177 58.99591338634491 234.4279706478119C57.74202537536621 247.6895878314972 68.60054624080658 260.8121681213379 86.60867404937744 263.3995318412781C92.45383334159851 264.2392656803131 105.50014269351959 261.7408015727997 113.1229807138443 256.007301568985C117.49042165279388 252.72256588935852 121.72209811210632 248.63467121124268 125.98260831832886 244.3345024585724C125.98792803287506 244.3275899887085 131.74891066551208 236.78249788284302 140.87061178684235 224.84378743171692C149.9964256286621 212.89947700500488 153.4495462179184 207.95898604393005 163.80859506130219 201.30604004859924C174.00809717178345 194.75581860542297 198.84186577796936 195.01577997207642 202.63652098178864 195.3888783454895C204.7088850736618 194.7215187549591 206.77253198623657 194.1356213092804 208.82786405086517 193.59382367134094C207.36601543426514 192.92497658729553 188.70056760311127 192.99672627449036 178.42390727996826 187.518550157547C162.0703001022339 178.80061316490173 146.7167992591858 155.72040128707886 125.57853353023529 156.09122467041016C102.9548157453537 156.48812294006348 92.43514728546143 173.73631024360657 90.65827322006226 187.2595512866974C89.38641440868378 196.93937158584595 91.57196772098541 204.679762840271 98.8388319015503 211.45398330688477C103.81213915348053 216.0901505947113 121.7555810213089 224.03669095039368 128.96996331214905 220.71021795272827C147.37179470062256 212.2254674434662 141.41769301891327 195.64420223236084 140.38021457195282 193.42486190795898C139.8270983695984 192.2416045665741 139.1162235736847 191.16299676895142 138.28920912742615 190.20706343650818C133.53275847434998 184.7088499069214 124.91571497917175 183.3044810295105 120.0906891822815 189.8484025001526C117.79909920692444 192.96286392211914 116.70940709114075 198.33096551895142 121.05534565448761 203.0086076259613C115.78636956214905 199.60819745063782 114.8133088350296 192.56089067459106 117.7783567905426 187.93058586120605C121.89188194274902 181.51012635231018 132.7053416967392 179.6286220550537 140.96864652633667 187.18631410598755C141.69914615154266 187.85428619384766 142.41176438331604 188.58832049369812 143.0960853099823 189.40749192237854C143.20368659496307 189.5360288619995 143.29899442195892 189.66911578178406 143.40275120735168 189.79922771453857C148.27547562122345 195.89821362495422 149.45309948921204 220.39443182945251 127.6735622882843 224.40200185775757C118.61086976528168 226.06956958770752 107.57572543621063 222.9427707195282 98.26264870166779 216.27503728866577C87.16362309455872 208.3284969329834 84.38887786865234 195.02277994155884 85.86874198913574 184.30433917045593C88.42618358135223 165.7811074256897 108.03827238082886 140.58471727371216 140.37721943855286 152.64155220985413C156.38951551914215 158.61121368408203 163.37027740478516 173.88925957679749 181.07370626926422 184.42753863334656C190.16424906253815 189.83877754211426 207.07128536701202 192.54601573944092 208.836000084877 193.59172368049622C218.6690230369568 191.0002474784851 228.19739174842834 189.81419014930725 236.30973291397095 190.0135142803192C258.87775015830994 190.56791186332703 269.60680973529816 164.69567465782166 278.3010114431381 143.81310319900513C286.99530255794525 122.93035674095154 303.82889103889465 118.49517607688904 313.2630248069763 118.49517607688904C322.69720327854156 118.49517607688904 327.3228962421417 124.61743688583374 336.82010662555695 130.69209790229797C351.5546877384186 140.11711931228638 373.0128515958786 122.93035674095154 378.3742744922638 118.49517607688904C378.3742744922638 118.49517607688904 378.3970732688904 121.00886511802673 378.3970732688904 121.00886511802673C378.3970732688904 121.00886511802673 378.4198273420334 118.49517607688904 378.4198273420334 118.49517607688904C383.7814737558365 122.93035674095154 405.2396376132965 140.11711931228638 419.974129319191 130.69209790229797C429.47142910957336 124.61743688583374 434.0971220731735 118.49517607688904 443.5312558412552 118.49517607688904C452.96543431282043 118.49517607688904 469.79902279376984 122.93035674095154 478.4931797981262 143.81310319900513C487.18751561641693 164.69567465782166 497.91657519340515 190.56791186332703 520.4845924377441 190.0135142803192C530.4388065338135 189.7689528465271 542.5163913965225 191.580894947052 554.6854395866394 195.56186509132385C554.1066635847092 195.0198049545288 554.152618765831 194.5538694858551 554.152618765831 194.5538694858551C557.4813295602798 194.17455863952637 582.8010250329971 193.82963514328003 593.1215841770172 200.45781874656677C603.4806777238846 207.11058974266052 606.9337089061737 212.0512557029724 616.0596121549606 223.99547863006592C625.18055331707 235.9333140850067 630.9412677288055 243.47796869277954 630.947526216507 243.4861936569214C635.2080364227295 247.78636240959167 639.4397128820419 251.87425708770752 643.8071985244751 255.15908026695251C651.4300812482834 260.8924927711487 664.4763906002045 263.39104437828064 670.321505188942 262.5512230396271C688.3296777009964 259.9639468193054 699.1881985664368 246.8412790298462 697.9343105554581 233.57983684539795C697.1485127210617 225.3246853351593 692.187856554985 218.11025428771973 684.4406981468201 215.29897904396057C678.3391196727753 213.08628869056702 672.7749217748642 213.83852291107178 668.5793657302856 216.38913679122925C667.3172075748444 217.15633344650269 666.1804873943329 218.08785438537598 665.1889194250107 219.14931225776672C663.2942516803741 221.17694091796875 661.9321812391281 223.68109250068665 661.2658758163452 226.44520545005798C659.8603982925415 232.28615498542786 661.2314094305038 236.77112293243408 663.7721766233444 239.65187287330627C664.4837666749954 240.45879435539246 665.2873117923737 241.1384038925171 666.147362112999 241.68798899650574C671.0939366817474 244.8481252193451 677.9110391139984 243.6622428894043 679.89126932621 237.07745909690857C680.830087184906 233.94479775428772 680.3023625612259 229.31554293632507 675.8693863153458 226.7074418067932C680.6747872829437 228.0352485179901 683.1710745096207 233.46547484397888 682.1066845655441 238.00381755828857C680.6294132471085 244.29731512069702 672.9878891706467 248.72873330116272 664.8940552473068 244.84935021400452C664.1786206960678 244.50643920898438 663.4600121974945 244.10542845726013 662.7412695884705 243.62820553779602C662.6283038854599 243.55321836471558 662.5234295129776 243.47131872177124 662.4129672050476 243.3943190574646C652.4416316747665 236.44291186332703 652.6238430738449 220.788880109787 663.3716334104538 212.79395246505737C663.3845527172089 212.78415250778198 663.3980084657669 212.77531504631042 663.4109724760056 212.76560258865356C664.6276671886444 211.8630440235138 665.8912111520767 211.08622241020203 667.1877909898758 210.43312525749207C682.7076334953308 202.61590933799744 702.8984982967377 212.46504139900208 702.8080184459686 234.70683193206787C702.7878124713898 240.04684615135193 700.6652463674545 251.39537167549133 693.0129487514496 258.2392418384552C683.8894594907761 266.39875626564026 668.1418527364731 269.480580329895 655.7694931030273 266.61689281463623C636.4012171030045 262.13384985923767 615.3376061916351 229.69922876358032 613.9210869073868 227.12717747688293C613.9210869073868 227.12717747688293 624.484564781189 250.68233728408813 624.484564781189 250.68233728408813C624.484564781189 250.68233728408813 619.1943098306656 245.88420820236206 619.1943098306656 245.88420820236206C632.6307911872864 260.54730677604675 646.2948579788208 273.0118899345398 660.8873714208603 273.7287743091583C662.2871716022491 273.7975490093231 663.6803109645844 273.899836063385 665.0653142929077 274.0338854789734C669.395830154419 272.40884256362915 675.8346070051193 270.4767634868622 679.8298020362854 271.206072807312C685.8869899511337 272.3118054866791 688.4249408245087 273.93956089019775 694.9202228784561 277.72610688209534C701.1994976997375 281.38700342178345 705.2306790351868 283.7386431694031 705.4927308559418 283.89150500297546C708.2895148992538 285.0729248523712 711.0354710817337 286.1673700809479 713.6875052452087 286.8573045730591C718.3044363260269 288.0583243370056 724.8124141693115 286.7324426174164 727.3548353910446 285.2324366569519C735.187735080719 280.61158180236816 737.7074916362762 272.479279756546 734.6007783412933 266.58635544776917C732.6643575429916 262.9191589355469 728.9960343837738 260.5269193649292 724.878485918045 260.7006061077118C721.6359187364578 260.8379805088043 719.2066420316696 262.24392437934875 717.7528400421143 264.22115325927734C717.3155952692032 264.8158881664276 716.9675339460373 265.462947845459 716.7113382816315 266.14211988449097C716.2217457294464 267.439914226532 716.069128036499 268.85670804977417 716.2877727746964 270.26133942604065C716.7510349750519 273.22915148735046 718.2394821643829 275.04214358329773 719.9632037878036 275.89080238342285C720.4458673000336 276.1284513473511 720.9469933509827 276.28988814353943 721.449371099472 276.38036274909973C724.3385572433472 276.90072298049927 727.2644002437592 275.0559685230255 726.9251455068588 271.63482093811035C726.7622460126877 270.00811553001404 725.6360758543015 267.9679744243622 723.0895866155624 267.6052885055542C725.5643267631531 267.3053398132324 727.7531881332397 269.3411934375763 728.1259704828262 271.6419084072113C728.6422063112259 274.8324944972992 725.9536941051483 278.3347542285919 721.4723039865494 278.08048033714294C721.0761864185333 278.05799293518066 720.6675071716309 278.00916814804077 720.2442545890808 277.9251685142517C720.1777358055115 277.9121310710907 720.1136757135391 277.894193649292 720.0479168891907 277.8794937133789C714.1131271123886 276.56192445755005 711.214374423027 269.289831161499 714.6600295305252 263.5493311882019C714.6641869544983 263.54224371910095 714.6686573028564 263.5356812477112 714.6728594303131 263.5287687778473C715.0633890628815 262.8801341056824 715.4996056556702 262.28058671951294 715.9745354652405 261.7321391105652C721.6604162454605 255.16634273529053 732.8722734451294 255.87998962402344 737.0688129663467 266.1807072162628C738.0770106315613 268.6533589363098 739.2581660747528 274.30373430252075 737.0243330001831 278.92336416244507C734.3610335588455 284.43102765083313 727.6674915552139 288.85072088241577 721.4015830755234 289.87962889671326C711.5926105976105 291.4905843734741 695.673700094223 280.50089478492737 694.5283074378967 279.5809237957001C694.5283074378967 279.5809237957001 703.9007503986359 288.4623100757599 703.9007503986359 288.4623100757599C703.9007503986359 288.4623100757599 702.3767192363739 287.91246247291565 702.3767192363739 287.91246247291565C705.1505256891251 290.03861570358276 707.7100236415863 292.4067928791046 710.0325931310654 294.99984407424927 Z M78.14684104919434 275.0163311958313C75.76298308372498 275.36326718330383 73.96536660194397 276.70323634147644 72.65121829509735 278.20472979545593C76.79353249073029 276.7456736564636 81.12462949752808 275.6400284767151 85.57883989810944 274.87921929359436C83.39006793498993 274.62512040138245 80.9431780576706 274.60928297042847 78.14684104919434 275.0163311958313 Z M168.001558303833 205.98770713806152C161.5343053340912 209.81914043426514 159.5179547071457 217.03637146949768 158.92688524723053 222.08886194229126C159.13176131248474 221.86993789672852 159.33645856380463 221.64742636680603 159.54137933254242 221.42990231513977C169.4073040485382 210.95759797096252 182.17202615737915 203.24056911468506 195.26987862586975 198.05647921562195C187.65276265144348 198.26394081115723 178.55475437641144 199.73550939559937 168.001558303833 205.98770713806152 Z M316.4730031490326 125.05860996246338C306.46094274520874 125.05860996246338 298.3445335626602 132.2844159603119 298.3445335626602 141.19791460037231C298.3445335626602 144.7688615322113 299.6495176553726 148.06733465194702 301.85491931438446 150.74044799804688C301.33108389377594 149.1182050704956 301.0470379590988 147.3978750705719 301.0470379590988 145.61437034606934C301.0470379590988 135.8947377204895 309.4142783880234 128.01539707183838 319.7357316017151 128.01539707183838C323.9943195581436 128.01539707183838 327.9180337190628 129.35930371284485 331.0608674287796 131.61784386634827C327.7591128349304 127.63958621025085 322.45531272888184 125.05860996246338 316.4730031490326 125.05860996246338 Z M371.56481635570526 134.58373093605042C370.6467409133911 137.78639197349548 368.99293553829193 141.23212695121765 366.60742354393005 144.74794912338257C364.3504340648651 148.0742471218109 360.65283012390137 153.16856241226196 352.9533703327179 152.8299388885498C344.21746027469635 152.4443280696869 343.9596552848816 141.41675114631653 350.0526953935623 139.07946133613586C354.8914004564285 137.22586941719055 359.09352791309357 141.66997504234314 356.1116714477539 144.53637504577637C354.42724418640137 141.23886442184448 350.3603894710541 142.79670763015747 351.82988238334656 145.90784406661987C353.55002772808075 149.54380321502686 359.17904567718506 147.9817600250244 359.6744943857193 143.75544095039368C360.4490716457367 137.11194491386414 351.25611317157745 134.42483162879944 346.62103247642517 139.94448256492615C341.9690091609955 145.47673344612122 345.30759942531586 155.46148991584778 353.4981269836426 155.4046151638031C360.11254382133484 155.36191534996033 363.4872097969055 153.31022429466248 368.0500943660736 147.02696418762207C371.74935233592987 141.9329113960266 371.56481635570526 136.43163537979126 371.56481635570526 134.58373093605042 Z M380.2748878002167 138.055278301239C379.72561609745026 136.79948377609253 379.1028518676758 135.64571380615234 378.42237544059753 134.58373093605042C377.7426589727402 135.64571380615234 377.12052059173584 136.79948377609253 376.57214295864105 138.055278301239C373.63302302360535 144.78741145133972 373.89386785030365 154.19370794296265 378.42183899879456 162.87612009048462C382.9482455253601 154.19370794296265 383.2084197998047 144.78741145133972 380.2748878002167 138.055278301239 Z M409.5886607170105 139.94448256492615C404.95349061489105 134.42483162879944 395.76048743724823 137.11194491386414 396.53501999378204 143.75544095039368C397.03055810928345 147.9817600250244 402.65962076187134 149.54380321502686 404.37972140312195 145.90784406661987C405.849259018898 142.79670763015747 401.78235960006714 141.23886442184448 400.097887635231 144.53637504577637C397.1159864664078 141.66997504234314 401.31829273700714 137.22586941719055 406.15672957897186 139.07946133613586C412.24981439113617 141.41675114631653 411.9922329187393 152.4443280696869 403.2562781572342 152.8299388885498C395.5568630695343 153.16856241226196 391.8591250181198 148.0742471218109 389.60218024253845 144.74794912338257C387.2166682481766 141.23212695121765 385.5628628730774 137.78639197349548 384.64478743076324 134.58373093605042C384.64478743076324 136.43163537979126 384.4601173400879 141.9329113960266 388.15942001342773 147.02696418762207C392.7223492860794 153.31022429466248 396.09705996513367 155.36191534996033 402.7115215063095 155.4046151638031C410.9021384716034 155.46148991584778 414.240594625473 145.47673344612122 409.5886607170105 139.94448256492615 Z M439.7341866493225 126.35981678962708C433.7518323659897 126.35981678962708 428.4480769634247 128.94079303741455 425.1463223695755 132.91905069351196C428.28929018974304 130.66051054000854 432.21291494369507 129.31660389900208 436.4715029001236 129.31660389900208C446.7929561138153 129.31660389900208 455.1601518392563 137.1959445476532 455.1601518392563 146.9157521724701C455.1601518392563 148.69890689849854 454.8761953115463 150.4194118976593 454.3523151874542 152.0414798259735C456.5575827360153 149.3684539794922 457.8626562356949 146.070068359375 457.8626562356949 142.499121427536C457.8626562356949 133.5856227874756 449.74629175662994 126.35981678962708 439.7341866493225 126.35981678962708 Z M588.92866563797 205.13939833641052C578.3228535652161 198.85613822937012 569.1855956315994 197.3999695777893 561.5452785491943 197.20414543151855C560.4778487682343 197.17675805091858 559.5784593820572 197.1019458770752 558.7967742681503 196.99930882453918C572.8407312631607 202.16336131095886 586.7021639347076 210.230651140213 597.2529013156891 221.42990231513977C597.54123878479 221.73588848114014 597.8292633295059 222.04817461967468 598.1174666881561 222.35696077346802C597.6963151693344 217.30980777740479 595.887522816658 209.26211786270142 588.92866563797 205.13939833641052 Z M678.7832934856415 274.1681098937988C674.7961450815201 273.5877249240875 671.5013642311096 273.84821128845215 668.6938960552216 274.47392106056213C674.4311858415604 275.2759425640106 679.9939085245132 276.6403241157532 685.2349896430969 278.579140663147C683.8938851356506 276.63997411727905 681.8052042722702 274.6079704761505 678.7832934856415 274.1681098937988 Z M706.7549784183502 234.285258769989C706.2771428823471 234.56202006340027 705.7833034992218 234.79231905937195 705.2792717218399 234.98735570907593C710.26455950737 230.95021080970764 710.7493687868118 223.2858567237854 706.6615481376648 216.24117493629456C702.5737721920013 209.19666814804077 695.3461576700211 205.2408103942871 689.3618811368942 207.55640029907227C689.7818256616592 207.2162892818451 690.2273405790329 206.9026906490326 690.7050867080688 206.62592935562134C696.8558837175369 203.0638198852539 705.435018658638 206.3679804801941 709.8669667243958 214.00582218170166C714.2990489006042 221.6438388824463 712.9057307243347 230.7232367992401 706.7549784183502 234.285258769989 Z M694.9266601800919 187.55013751983643C693.896602511406 187.8463237285614 692.8743232488632 188.04048538208008 691.8644268512726 188.14854741096497C692.0005042552948 187.14335179328918 692.2230381965637 186.12818121910095 692.5478537082672 185.10811066627502C694.2900378704071 179.6404345035553 699.5299566984177 174.88115525245667 707.1209658384323 173.31543707847595C705.3467292785645 180.8526542186737 700.4415948390961 185.95554447174072 694.9266601800919 187.55013751983643 Z M688.1166208982468 190.73538613319397C689.2876286506653 192.39297890663147 693.6326284408569 190.22990083694458 695.857878446579 193.37997460365295C698.3398605585098 196.89334678649902 694.9919272661209 200.61768054962158 691.3202066421509 202.38701033592224C685.6277097463608 205.1301233768463 675.9092618227005 199.7309594154358 675.9092618227005 199.7309594154358C675.9092618227005 199.7309594154358 674.0805764198303 189.04165601730347 677.9544461965561 184.7675621509552C680.4583777189255 182.0050241947174 684.9181760549545 180.06900763511658 687.0314885377884 182.81448316574097C689.5663101673126 186.10735630989075 686.7462803125381 188.79543209075928 688.1166208982468 190.73538613319397 Z M673.6955006122589 182.25719809532166C673.1761355400085 182.44479727745056 672.6492155790329 182.58400917053223 672.1184958219528 182.6865587234497C677.7417917251587 179.59729719161987 679.5803565979004 172.14057970046997 676.808919429779 164.4830505847931C674.0374375581741 156.8255214691162 667.6270921230316 151.65114402770996 661.3265384435654 152.8689637184143C661.800261259079 152.60865235328674 662.2944582700729 152.37914085388184 662.8136892318726 152.19154167175293C669.4996316432953 149.77646470069885 677.3555536270142 154.5490438938141 680.3605217933655 162.85135769844055C683.3655346632004 171.1539340019226 680.3814430236816 179.8422086238861 673.6955006122589 182.25719809532166 Z M658.6675305366516 215.42672848701477C649.3544985055923 222.09463691711426 638.3193541765213 225.22134828567505 629.2566616535187 223.5537805557251C607.4770350456238 219.54621052742004 608.6546589136124 195.04999232292175 613.5274280309677 188.95091891288757C613.6311848163605 188.82098197937012 613.7264926433563 188.6877200603485 613.8340939283371 188.55918312072754C614.5184595584869 187.74009919166565 615.2310330867767 187.00615239143372 615.9614433050156 186.33800530433655C624.2248822450638 178.7803132534027 635.0382525920868 180.6619050502777 639.1518671512604 187.08236455917358C642.1168704032898 191.71258187294006 641.1437649726868 198.76006364822388 635.8747888803482 202.16038632392883C640.2208615541458 197.48274421691895 639.1310353279114 192.11464262008667 636.8394900560379 189.0000936985016C632.0145089626312 182.45625972747803 623.3973760604858 183.86062860488892 618.6409254074097 189.3588421344757C617.8140003681183 190.31477546691895 617.1031255722046 191.3932957649231 616.5499646663666 192.5766406059265C615.5124415159225 194.79598093032837 609.5584292411804 211.37724614143372 627.9602606296539 219.86208415031433C635.1745982170105 223.18838214874268 653.1180400848389 215.24192929267883 658.0913920402527 210.60558700561523C665.358211517334 203.83136653900146 667.543720126152 196.09106278419495 666.2719060182571 186.4112424850464C664.495031952858 172.88817644119263 653.9753634929657 155.639901638031 631.351556301117 155.24300336837769C610.2134246826172 154.87209248542786 594.8598344326019 177.95239186286926 578.5063166618347 186.67015385627747C568.1322474479675 192.20047974586487 549.1985787153244 192.07448029518127 548.0547059774399 192.76441478729248C549.6332306861877 191.7334942817688 566.7072792053223 189.02538108825684 575.8564729690552 183.5793173313141C593.5599465370178 173.04103827476501 600.5407084226608 157.76299238204956 616.5528256893158 151.79333090782166C648.8919962644577 139.73658347129822 668.5040403604507 164.93288612365723 671.0614819526672 183.45603036880493C672.5413460731506 194.17455863952637 669.7666008472443 207.48027563095093 658.6675305366516 215.42672848701477 Z M585.0439329147339 165.53033351898193C575.826253414154 183.0645570755005 557.2807003259659 179.50008511543274 557.2807003259659 179.50008511543274C561.5510452985764 179.57524728775024 574.825163602829 175.2003538608551 578.7545104026794 165.89984440803528C583.1309367418289 155.5412895679474 587.5816155672073 141.88154911994934 597.4379290342331 135.96193742752075C607.7970225811005 129.74027705192566 618.9576495885849 133.06675004959106 621.3624287843704 134.17545771598816C617.8477514982224 134.91482949256897 607.0570458173752 135.222740650177 599.5343436002731 141.07489013671875C588.5635722875595 149.60916543006897 589.5452160835266 156.96788334846497 585.0439329147339 165.53033351898193 Z M567.5015259981155 167.7340989112854C566.918503165245 167.9043731689453 566.3323063850403 168.03824758529663 565.7450367212296 168.1384346485138C574.1239000558853 164.60021257400513 578.4131546020508 154.14173316955566 575.3933001756668 143.82867813110352C572.37353515625 133.5157105922699 563.1183941364288 127.01518893241882 554.1517246961594 128.5460822582245C554.7005940675735 128.31438326835632 555.2665401697159 128.11147165298462 555.8495182991028 127.9411973953247C565.3334964513779 125.16947197914124 575.6300945281982 131.8306429386139 578.8477618694305 142.81919503211975C582.0653398036957 153.8077471256256 576.9855041503906 164.96237349510193 567.5015259981155 167.7340989112854 Z M555.3293932676315 110.27826189994812C550.5998541116714 112.55745196342468 542.5254662036896 108.07169651985168 542.5254662036896 108.07169651985168C542.5254662036896 108.07169651985168 541.0060842037201 99.19048523902893 544.2246009111404 95.63957571983337C546.3050116300583 93.34428572654724 550.0103045701981 91.73578023910522 551.7661232948303 94.01689529418945C553.8721044063568 96.75265836715698 551.529105424881 98.98599863052368 552.6677031517029 100.59782910346985C553.640585064888 101.97498559951782 557.2505254745483 100.17791843414307 559.0994168519974 102.79494452476501C561.1615438461304 105.714106798172 558.379958987236 108.80853080749512 555.3293932676315 110.27826189994812 Z M530.7830233573914 113.35133600234985C529.9460400342941 113.40313577651978 529.1302908658981 113.2919237613678 528.354730129242 113.04499983787537C531.4886231422424 111.6010811328888 533.5892398357391 107.78189778327942 533.3206613063812 103.43920421600342C533.0519933700562 99.0961606502533 530.4966975450516 95.56441354751587 527.2087116241455 94.51713061332703C527.9479284286499 94.17631959915161 528.7439186573029 93.96605801582336 529.5807678699493 93.91434574127197C533.9654643535614 93.6436219215393 537.7890427112579 97.77544140815735 538.121055483818 103.14275550842285C538.4530235528946 108.51006960868835 535.1677198410034 113.08069968223572 530.7830233573914 113.35133600234985 Z M543.5255725383759 118.96294903755188C539.20323741436 118.4274513721466 535.258244395256 120.28655576705933 533.6224545240402 123.32253003120422C533.4234346151352 122.53389596939087 533.3628166913986 121.71358704566956 533.4659923315048 120.88225317001343C534.0067703723907 116.52687215805054 538.7756932973862 113.53289771080017 544.1174913644791 114.19465732574463C549.459602355957 114.85650444030762 553.3517558574677 118.92392420768738 552.8111119270325 123.27921772003174C552.7078468799591 124.11055159568787 552.4486113786697 124.89122319221497 552.0625967979431 125.6072325706482C551.2189079523087 122.26422214508057 547.8479523658752 119.49844670295715 543.5255725383759 118.96294903755188 Z M529.696818113327 147.9288227558136C527.7983058691025 148.06400966644287 525.4376937150955 149.36740398406982 525.0689346790314 152.48527789115906C524.6645022630692 149.42900371551514 526.9972641468048 146.81827759742737 529.6789367198944 146.45200419425964C533.3980877399445 145.94511890411377 537.5508178472519 149.39260387420654 537.3506803512573 154.8947548866272C537.332977771759 155.381165266037 537.2848768234253 155.8818380832672 537.1957827806473 156.39896082878113C537.1818799972534 156.48024797439575 537.1623445749283 156.5583851337433 537.1466983556747 156.63870978355408C536.412756562233 160.40670585632324 526.71062541008 168.70858216285706 518.264796257019 161.83417463302612C514.7503871917725 158.97381210327148 513.295959353447 153.79435968399048 512.827824473381 148.18309664726257C512.2698355913162 141.49576330184937 517.506312251091 135.30954027175903 521.5944458246231 131.8962676525116C529.5365561246872 125.26572155952454 550.2183992862701 126.5393660068512 558.868702173233 141.13648986816406C566.8303925991058 154.5713562965393 564.7979040145874 169.36587929725647 558.7762106657028 177.6348557472229C551.296647310257 187.905823469162 532.0970822572708 190.25055074691772 528.7553180456161 190.25055074691772C531.2843729257584 188.36073398590088 549.8260815143585 184.30180168151855 555.9089739322662 173.9386968612671C561.8873943090439 163.75374126434326 561.5144778490067 147.17343854904175 546.7523146867752 134.85322976112366C538.2100601196289 127.72384834289551 526.4390964508057 131.15707087516785 521.2853212356567 136.08732438087463C517.8132463693619 139.4088099002838 516.2298936843872 141.79754948616028 515.3975148200989 146.21846771240234C514.7789527177811 149.50381588935852 517.405997633934 159.45059752464294 520.953263759613 161.0904278755188C530.0013829469681 165.27325963974 534.321885228157 157.75887989997864 534.8234136104584 156.66312217712402C535.0908298492432 156.0788872241974 535.2687050104141 155.46901488304138 535.3636999130249 154.85476756095886C535.9093059301376 151.321795463562 533.6891074180603 147.64891147613525 529.696818113327 147.9288227558136 Z M499.1233010292053 141.65378761291504C497.42032182216644 141.7391872406006 495.67889761924744 141.67898750305176 493.91226065158844 141.46338844299316C493.89339578151703 141.46111345291138 493.8745756149292 141.4597134590149 493.85580015182495 141.45735096931458C478.23734176158905 139.5299093723297 468.95345640182495 123.65564107894897 475.0924069881439 110.77552223205566C475.16040098667145 110.63272285461426 475.21976721286774 110.48843598365784 475.291739821434 110.34633660316467C475.7478494644165 109.44220304489136 476.24839437007904 108.61611914634705 476.77951645851135 107.8509349822998C482.78735172748566 99.19599771499634 493.1636561155319 99.28734731674194 498.32932245731354 104.85486054420471C502.05339086055756 108.87048053741455 502.66109001636505 115.86187505722046 498.5272694826126 120.00454449653625C501.53693151474 114.77110481262207 499.38508462905884 109.73926424980164 496.60604786872864 107.0858383178711C490.75775933265686 101.51237511634827 483.10930621623993 104.25601315498352 479.8963327407837 110.35149908065796C479.33767330646515 111.41094446182251 478.9124537706375 112.57118940353394 478.6549617052078 113.80764651298523C477.73545575141907 118.22200226783752 478.94267332553864 123.59579133987427 483.7720800638199 128.74313139915466C486.0587079524994 131.17824578285217 488.9045317173004 132.94451308250427 492.01719057559967 133.9154088497162C493.6462302207947 134.42369413375854 495.34804713726044 134.71524286270142 497.0823187828064 134.7666051387787C502.84781646728516 134.936616897583 508.9650411605835 132.47709012031555 513.9077265262604 126.67910289764404C520.1824862957001 119.31565999984741 520.2986259460449 109.37500333786011 517.0578022003174 100.19034337997437C512.5302333831787 87.35904932022095 487.93325912952423 74.12569451332092 467.90498089790344 80.68064093589783C451.0358978509903 86.20169186592102 439.611922621727 107.94447207450867 426.38943684101105 119.0216612815857C418.00172221660614 126.04875564575195 410.27861428260803 124.45250010490417 409.3709100484848 125.30509638786316C410.60673785209656 124.05210185050964 417.49040377140045 123.7996654510498 424.76620864868164 117.05064487457275C438.8450790643692 103.99123930931091 443.72558188438416 89.55616474151611 457.2200883626938 81.19898867607117C484.47432708740234 64.32048726081848 513.9484961032867 78.85819888114929 522.3344225883484 95.91283702850342C533.8626463413239 119.357834815979 519.5098776817322 140.63152956962585 499.1233010292053 141.65378761291504 Z M461.16347205638885 66.62767720222473C450.762983083725 72.94103717803955 443.31359457969666 80.9322898387909 441.26264345645905 87.21432495117188C438.74127757549286 80.92143988609314 446.247841835022 70.20439910888672 458.752747297287 62.61354470252991C471.2884087562561 55.00387787818909 484.3014587163925 53.29518532752991 488.6991192102432 58.47682523727417C482.17898201942444 57.36593008041382 471.6044623851776 60.289467334747314 461.16347205638885 66.62767720222473 Z M450.96866381168365 59.118547439575195C450.96866381168365 59.118547439575195 445.12068819999695 52.25927734375 446.07157599925995 47.56404781341553C446.6862041950226 44.529298543930054 449.0488727092743 41.25523781776428 451.7247785329819 42.32002067565918C454.93426513671875 43.59707760810852 454.0622789859772 46.71267652511597 455.86530458927155 47.51723551750183C457.4058760404587 48.2044575214386 459.59008824825287 44.81699728965759 462.5178087949753 46.123279094696045C465.7833535671234 47.58006024360657 464.9747122526169 51.659729957580566 463.10400557518005 54.48045516014099C460.2037329673767 58.85359859466553 450.96866381168365 59.118547439575195 450.96866381168365 59.118547439575195 Z M446.7706490755081 66.86095118522644C446.1694766283035 73.39857268333435 442.2723163366318 78.57172513008118 437.5243593454361 79.75961995124817C439.1728003025055 77.73190379142761 440.5608434677124 75.02974057197571 441.39751386642456 71.90897917747498C443.426157951355 64.34174966812134 441.4712746143341 57.2444806098938 437.0312352180481 56.056498289108276C432.5911958217621 54.868428468704224 427.3472089767456 60.039830923080444 425.31865429878235 67.60688543319702C425.27743768692017 67.76062226295471 425.24797809123993 67.91252160072327 425.21011424064636 68.06590843200684C425.1262058019638 67.03323793411255 425.1207072734833 65.97020506858826 425.220619559288 64.88337230682373C425.93793165683746 57.08251881599426 431.3435215950012 51.201231956481934 437.29440462589264 51.74731707572937C443.2452429533005 52.29340219497681 447.48796117305756 59.06009769439697 446.7706490755081 66.86095118522644 Z M409.3709100484848 100.04876899719238C398.27188444137573 110.15121245384216 383.47319853305817 110.39769887924194 377.80032646656036 110.39769887924194C372.12749910354614 110.39769887924194 355.8489043712616 109.41210317611694 345.24318170547485 98.07766509056091C338.46541833877563 90.83418416976929 332.88722825050354 79.013423204422 331.435795545578 67.04732537269592C331.42600548267365 67.3883113861084 331.4217586517334 67.73113489151001 331.3945789337158 68.06590843200684C331.3566256761551 67.91252160072327 331.32716608047485 67.76062226295471 331.28594946861267 67.60688543319702C329.25730538368225 60.039830923080444 324.01340794563293 54.868428468704224 319.57327914237976 56.056498289108276C315.1333738565445 57.2444806098938 313.17844581604004 64.34174966812134 315.20708990097046 71.90897917747498C316.0438050031662 75.02974057197571 317.4318481683731 77.73190379142761 319.0802891254425 79.75961995124817C314.33228743076324 78.57172513008118 310.4350824356079 73.39857268333435 309.8339546918869 66.86095118522644C309.11664259433746 59.06009769439697 313.35931611061096 52.29340219497681 319.31024384498596 51.74731707572937C324.7735906839371 51.2459442615509 329.76661217212677 56.167885303497314 331.1047662496567 63.013242959976196C330.8874626159668 57.66001629829407 331.56239581108093 52.37731432914734 333.4041793346405 47.56492280960083C339.8169387578964 30.80962085723877 356.09553349018097 31.048407316207886 360.2884967327118 31.048407316207886C374.10066616535187 31.048407316207886 377.80032646656036 44.36182427406311 377.80032646656036 44.36182427406311C381.50003147125244 39.43375825881958 387.6661170721054 31.30241870880127 398.0252106189728 31.05610728263855C408.38434886932373 30.80962085723877 422.8192825317383 36.47697114944458 424.48108983039856 53.47867202758789C426.1427630186081 70.48054790496826 420.4698909521103 89.9463255405426 409.3709100484848 100.04876899719238 Z M377.3555715084076 67.45034861564636C377.6716698408127 68.17414546012878 378.0302811861038 68.83914256095886 378.4221519231796 69.45137739181519C378.81420147418976 68.83914256095886 379.17321515083313 68.17414546012878 379.48976051807404 67.45034861564636C381.1806250810623 63.570090532302856 381.03060019016266 58.148701667785645 378.42166018486023 53.144335985183716C375.81187081336975 58.148701667785645 375.661532998085 63.570090532302856 377.3555715084076 67.45034861564636 Z M419.35172271728516 55.573150396347046C417.0966554880142 40.8668270111084 406.5344740152359 35.49128794670105 395.4294581413269 36.17570996284485C387.5118006467819 36.663782835006714 382.4709017276764 43.53652787208557 379.17822194099426 48.10794544219971C379.46499478816986 48.45820641517639 379.771258354187 48.794992446899414 380.03398072719574 49.16135334968567C380.20640206336975 49.40153980255127 380.37229669094086 49.64583873748779 380.5335421562195 49.892937660217285C382.9832036495209 53.642996311187744 384.14223086833954 58.15281414985657 383.18986785411835 63.13075494766235C382.587175488472 66.27689123153687 381.2466074228287 68.85821747779846 379.4667829275131 70.86720871925354C386.19175148010254 78.76308679580688 399.56448566913605 74.46134305000305 396.8035538196564 64.35618710517883C395.0126875638962 67.57083559036255 389.9132717847824 66.39186573028564 390.5832875967026 62.5450325012207C391.7635042667389 55.70781230926514 403.57702565193176 57.60436654090881 400.6207842826843 67.84147191047668C397.8679437637329 77.34375548362732 385.5379630327225 78.5356752872467 378.4221519231796 71.9339165687561C371.3032115697861 78.5356752872467 358.9744825363159 77.34375548362732 356.2189598083496 67.84147191047668C353.26276314258575 57.60436654090881 365.07623982429504 55.70781230926514 366.2565459012985 62.5450325012207C366.93201553821564 66.39186573028564 361.82683300971985 67.57083559036255 360.03619027137756 64.35618710517883C357.2735149860382 74.4617805480957 370.64714324474335 78.763436794281 377.3770738840103 70.86615872383118C375.5985904932022 68.85725498199463 374.2596764564514 66.27627873420715 373.65890634059906 63.13075494766235C372.70269882678986 58.152026653289795 373.85998260974884 53.64159631729126 376.30910766124725 49.89110016822815C376.4700402021408 49.6447012424469 376.63535368442535 49.40110230445862 376.8072385787964 49.16135334968567C376.9803304672241 48.919854402542114 377.1874417066574 48.70163035392761 377.3710389137268 48.46713137626648C375.88549745082855 45.00442147254944 371.2473769187927 36.16905999183655 362.5632781982422 36.16905999183655C358.9114953279495 36.16905999183655 344.7339643239975 35.96116089820862 339.14884519577026 50.5539972782135C333.5637707710266 65.14674615859985 338.9516581296921 83.80201482772827 347.46302258968353 94.25839424133301C356.5888364315033 105.46963286399841 372.9729313850403 109.41210317611694 377.9135603904724 109.41210317611694C388.77605986595154 109.41210317611694 398.1508274078369 105.8369562625885 407.3977429866791 96.59909653663635C416.6469831466675 87.35904932022095 421.84429955482483 71.82760453224182 419.35172271728516 55.573150396347046 Z M378.4096349477768 89.84368848800659C376.45367872714996 89.84368848800659 374.8578984737396 88.24918293952942 374.8578984737396 86.28420400619507C374.8578984737396 83.30676698684692 378.3168752193451 82.34645867347717 378.3168752193451 79.19297242164612C378.3168752193451 77.23726844787598 377.2906173467636 76.21929788589478 377.2906173467636 75.17560243606567C377.2906173467636 74.47298049926758 377.7452964782715 73.96294522285461 378.4096349477768 73.96294522285461C379.0888149738312 73.96294522285461 379.5453716516495 74.47298049926758 379.5453716516495 75.17560243606567C379.5453716516495 76.21929788589478 378.51732563972473 77.23726844787598 378.51732563972473 79.19297242164612C378.51732563972473 82.34645867347717 381.9818903207779 83.30676698684692 381.9818903207779 86.28420400619507C381.9818903207779 88.24918293952942 380.38222086429596 89.84368848800659 378.4096349477768 89.84368848800659 Z M396.53501999378204 20.71382737159729C397.03055810928345 16.487508296966553 402.6595313549042 14.925465106964111 404.37972140312195 18.561599254608154C405.849259018898 21.672735691070557 401.78235960006714 23.230491399765015 400.097887635231 19.9328932762146C397.1159864664078 22.799380779266357 401.31829273700714 27.243573904037476 406.15672957897186 25.389806985855103C412.24981439113617 23.05251717567444 411.99218821525574 12.025027751922607 403.2562334537506 11.639329433441162C395.55677366256714 11.300793409347534 391.8591250181198 16.395196199417114 389.60218024253845 19.72149419784546C387.2166682481766 23.237141370773315 385.5628628730774 26.682963848114014 384.64478743076324 29.885624885559082C384.64478743076324 28.037720441818237 384.46025145053864 22.536356925964355 388.15942001342773 17.442479133605957C392.7223492860794 11.159044027328491 396.09705996513367 9.10735297203064 402.7115215063095 9.064653158187866C410.9021384716034 9.007778406143188 414.240594625473 18.99253487586975 409.58857131004333 24.52496075630188C404.95349061489105 30.04443669319153 395.76048743724823 27.35732340812683 396.53501999378204 20.71382737159729 Z M378.4224201440811 29.885624885559082C377.74270367622375 28.823554515838623 377.1206547021866 27.669784545898438 376.57214295864105 26.413990020751953C373.63302302360535 19.681769371032715 373.89386785030365 10.27556037902832 378.42183899879456 1.593235731124878C382.9482455253601 10.27556037902832 383.2084197998047 19.681769371032715 380.2748878002167 26.413990020751953C379.72561609745026 27.669784545898438 379.1028518676758 28.823554515838623 378.4224201440811 29.885624885559082 Z M366.60746824741364 19.72149419784546C364.3504340648651 16.395196199417114 360.65283012390137 11.300793409347534 352.9533703327179 11.639329433441162C344.21746027469635 12.025027751922607 343.95974469184875 23.05251717567444 350.05282950401306 25.389806985855103C354.8914451599121 27.243573904037476 359.09352791309357 22.799380779266357 356.1116714477539 19.9328932762146C354.42724418640137 23.230491399765015 350.3603447675705 21.672735691070557 351.82988238334656 18.561599254608154C353.55002772808075 14.925465106964111 359.17904567718506 16.487508296966553 359.6744943857193 20.71382737159729C360.4490716457367 27.35732340812683 351.25611317157745 30.04443669319153 346.62103247642517 24.52496075630188C341.9690091609955 18.99253487586975 345.3074653148651 9.007778406143188 353.4981269836426 9.064653158187866C360.1124544143677 9.10735297203064 363.4872097969055 11.159044027328491 368.0500943660736 17.442479133605957C371.74935233592987 22.536356925964355 371.56481635570526 28.037720441818237 371.56481635570526 29.885624885559082C370.6467409133911 26.682963848114014 368.99293553829193 23.237141370773315 366.60746824741364 19.72149419784546 Z M293.50059819221497 54.48045516014099C291.6299362182617 51.659729957580566 290.8212949037552 47.58006024360657 294.08679497241974 46.123279094696045C297.014426112175 44.81699728965759 299.19868302345276 48.2044575214386 300.7392991781235 47.51723551750183C302.542414188385 46.71267652511597 301.67033863067627 43.59707760810852 304.87982523441315 42.32002067565918C307.5557310581207 41.25523781776428 309.91839957237244 44.529298543930054 310.53302776813507 47.56404781341553C311.4838261604309 52.25927734375 305.63598465919495 59.118547439575195 305.63598465919495 59.118547439575195C305.63598465919495 59.118547439575195 296.4008708000183 58.85359859466553 293.50059819221497 54.48045516014099 Z M315.34200501441956 87.21432495117188C313.29100918769836 80.9322898387909 305.84162068367004 72.94103717803955 295.44113171100616 66.62767720222473C285.0001413822174 60.289467334747314 274.4256217479706 57.36593008041382 267.9054845571518 58.47682523727417C272.3031450510025 53.29518532752991 285.31615030765533 55.00387787818909 297.8519011735916 62.61354470252991C310.3568066358566 70.20439910888672 317.86337089538574 80.92143988609314 315.34200501441956 87.21432495117188 Z M302.6989657878876 81.19898867607117C316.1934722661972 89.55616474151611 321.0739303827286 103.99123930931091 335.1528455018997 117.05064487457275C342.4286503791809 123.7996654510498 349.3122715950012 124.05210185050964 350.5480546951294 125.30509638786316C349.64035046100616 124.45250010490417 341.91728723049164 126.04875564575195 333.52952790260315 119.0216612815857C320.30717623233795 107.94447207450867 308.8830668926239 86.20169186592102 292.0140732526779 80.68064093589783C271.98575031757355 74.12569451332092 247.3887313604355 87.35904932022095 242.8611625432968 100.19034337997437C239.62042820453644 109.37500333786011 239.7365231513977 119.31565999984741 246.01123821735382 126.67910289764404C250.9539235830307 132.47709012031555 257.0712823867798 134.936616897583 262.8366906642914 134.7666051387787C264.5710070133209 134.71524286270142 266.2727345228195 134.42369413375854 267.9018188714981 133.9154088497162C271.01447772979736 132.94451308250427 273.8603014945984 131.17824578285217 276.1469293832779 128.74313139915466C280.9763808250427 123.59579133987427 282.18350899219513 118.22200226783752 281.2640030384064 113.80764651298523C281.00655567646027 112.57118940353394 280.58129143714905 111.41094446182251 280.0226767063141 110.35149908065796C276.80974793434143 104.25601315498352 269.1612501144409 101.51237511634827 263.31296157836914 107.0858383178711C260.5339695215225 109.73926424980164 258.3820332288742 114.77110481262207 261.3916952610016 120.00454449653625C257.25787472724915 115.86187505722046 257.8656632900238 108.87048053741455 261.5897316932678 104.85486054420471C266.755442738533 99.28734731674194 277.13161301612854 99.19599771499634 283.13944828510284 107.8509349822998C283.67057037353516 108.61611914634705 284.1711152791977 109.44220304489136 284.62731432914734 110.34633660316467C284.69919753074646 110.48843598365784 284.75860846042633 110.63272285461426 284.8265577554703 110.77552223205566C290.9655977487564 123.65564107894897 281.68162298202515 139.5299093723297 266.0632092952728 141.45735096931458C266.044389128685 141.4597134590149 266.02565836906433 141.46111345291138 266.00674879550934 141.46338844299316C264.2401565313339 141.67898750305176 262.49868762493134 141.7391872406006 260.79570841789246 141.65378761291504C240.4091317653656 140.63152956962585 226.05636310577393 119.357834815979 237.5845868587494 95.91283702850342C245.97055804729462 78.85819888114929 275.44463765621185 64.32048726081848 302.6989657878876 81.19898867607117 Z M223.6094732284546 104.28733801841736C223.34093940258026 108.63011908531189 225.44155609607697 112.44921493530273 228.57549381256104 113.8931336402893C227.79984366893768 114.14032006263733 226.98413920402527 114.25135707855225 226.14715588092804 114.19964480400085C221.76245939731598 113.92892098426819 218.4771556854248 109.35846590995789 218.80916845798492 103.99106431007385C219.14113652706146 98.62357521057129 222.96475958824158 94.49193072319031 227.34941136837006 94.76256704330444C228.18630528450012 94.8141918182373 228.9822061061859 95.02462840080261 229.7214229106903 95.3653519153595C226.4335263967514 96.41263484954834 223.87818586826324 99.9444694519043 223.6094732284546 104.28733801841736 Z M201.60083067417145 111.12648320198059C198.55026495456696 109.65675210952759 195.7686800956726 106.56232810020447 197.8308070898056 103.64316582679749C199.67965376377106 101.02613973617554 203.28954946994781 102.82311940193176 204.2625207901001 101.44605040550232C205.40102910995483 99.83421993255615 203.05807483196259 97.60105466842651 205.16405594348907 94.86511659622192C206.91987466812134 92.58417654037476 210.6251676082611 94.19250702857971 212.70562303066254 96.48788452148438C215.9240950345993 100.0387065410614 214.4047577381134 108.91991782188416 214.4047577381134 108.91991782188416C214.4047577381134 108.91991782188416 206.3304145336151 113.40567326545715 201.60083067417145 111.12648320198059 Z M201.08061623573303 128.78941869735718C201.66363906860352 128.9596929550171 202.22962987422943 129.16269207000732 202.77849924564362 129.3943910598755C193.81182980537415 127.8634102344513 184.5566440820694 134.36384439468384 181.536834359169 144.676899433136C178.5170693397522 154.9898669719696 182.80632388591766 165.44860887527466 191.18514251708984 168.98691844940186C190.5979175567627 168.88655638694763 190.01172077655792 168.75250697135925 189.42865324020386 168.58223271369934C179.94471979141235 165.81068229675293 174.86483943462372 154.65596842765808 178.08246207237244 143.66741633415222C181.30008471012115 132.6789517402649 191.59668278694153 126.0176932811737 201.08061623573303 128.78941869735718 Z M213.40460669994354 119.81117033958435C209.08222687244415 120.34684300422668 205.71127128601074 123.11244344711304 204.86762714385986 126.4555413722992C204.48156785964966 125.73953199386597 204.2223323583603 124.95877289772034 204.11906731128693 124.12743902206421C203.57837867736816 119.77223300933838 207.47062158584595 115.70481324195862 212.8125537633896 115.04296612739563C218.1545306444168 114.38111901283264 222.92345356941223 117.37509346008301 223.46418690681458 121.73056197166443C223.56740725040436 122.56189584732056 223.5067446231842 123.38220477104187 223.30772471427917 124.1707513332367C221.67193484306335 121.13486456871033 217.72694182395935 119.27576017379761 213.40460669994354 119.81117033958435 Z M227.87190568447113 190.26358819007874C224.53014147281647 190.26358819007874 205.63357663154602 188.75404477119446 198.15396857261658 178.48307704925537C192.13231992721558 170.21410059928894 190.09983134269714 155.41957759857178 198.06147706508636 141.98471117019653C206.71173524856567 127.38758730888367 227.3936231136322 126.113942861557 235.33577811717987 132.74448895454407C239.42391169071198 136.1577615737915 244.66034364700317 142.34398460388184 244.10239946842194 149.0312304496765C243.63421988487244 154.64258098602295 242.17979204654694 159.82203340530396 238.66542768478394 162.6823959350586C230.21955382823944 169.55680346488953 220.5175120830536 161.25501465797424 219.78348088264465 157.48693108558655C219.7678346633911 157.4066939353943 219.7482545375824 157.32846927642822 219.73435175418854 157.24735713005066C219.6453024148941 156.73005938529968 219.59724617004395 156.22929906845093 219.57954359054565 155.74297618865967C219.3793613910675 150.240825176239 223.53213620185852 146.79334020614624 227.2511978149414 147.30040049552917C229.932870388031 147.6664113998413 232.26563227176666 150.27731251716614 231.86124455928802 153.33349919319153C231.49248552322388 150.21553778648376 229.1319180727005 148.91231846809387 227.2332717180252 148.77704405784607C223.24111652374268 148.49713277816772 221.0207839012146 152.170104265213 221.56652402877808 155.70307636260986C221.6614295244217 156.31723618507385 221.83934938907623 156.92710852622986 222.10672092437744 157.51143097877502C222.60833871364594 158.60727620124817 226.92879629135132 166.12148094177246 235.9768260717392 161.93864917755127C239.52418160438538 160.29890632629395 242.1512712240219 150.35212469100952 241.53266441822052 147.06677651405334C240.7002408504486 142.64577078819275 239.1169775724411 140.25711870193481 235.64485800266266 136.9355456829071C230.49108278751373 132.00529217720032 218.7201191186905 128.57224464416504 210.17795395851135 135.70145106315613C195.4157907962799 148.0215723514557 195.0427849292755 164.60196256637573 201.02125000953674 174.78691816329956C207.10414242744446 185.15002298355103 225.34276139736176 188.37394642829895 227.87190568447113 190.26358819007874 Z M199.6495236158371 180.3483064174652C199.6495236158371 180.3483064174652 181.10397052764893 183.91277837753296 171.8862463235855 166.3785548210144C167.3849184513092 157.81610465049744 168.3666069507599 150.45747423171997 157.3957462310791 141.92311143875122C149.8731781244278 136.07096195220947 139.08238303661346 135.76305079460144 135.5677057504654 135.02367901802063C137.97244024276733 133.91497135162354 149.13320136070251 130.58849835395813 159.49229490756989 136.81015872955322C169.34860837459564 142.72985792160034 173.79928719997406 156.38951086997986 178.17566883563995 166.74806571006775C182.10501563549042 176.04857516288757 195.37917864322662 180.42346858978271 199.6495236158371 180.3483064174652 Z M80.12130451202393 165.33127188682556C77.34977793693542 172.98880100250244 79.1883875131607 180.44551849365234 84.811638712883 183.53478002548218C84.28091895580292 183.43240547180176 83.75399899482727 183.29310607910156 83.23467862606049 183.10550689697266C76.54878091812134 180.69042992591858 73.56473398208618 172.00215530395508 76.56965744495392 163.69957900047302C79.57449150085449 155.3973526954651 87.43045818805695 150.62477350234985 94.11653470993042 153.0397629737854C94.63581037521362 153.2273621559143 95.129962682724 153.45696115493774 95.60364079475403 153.71718502044678C89.30299770832062 152.49945282936096 82.89278638362885 157.67374277114868 80.12130451202393 165.33127188682556 Z M81.0209174156189 200.5792682170868C81.0209174156189 200.5792682170868 71.3025141954422 205.97825717926025 65.60992789268494 203.2352316379547C61.93829667568207 201.46590185165405 58.59036338329315 197.7415680885315 61.072345495224 194.2281084060669C63.297595500946045 191.07812213897705 67.64255058765411 193.24120020866394 68.81346893310547 191.58369493484497C70.18389892578125 189.64365339279175 67.36386907100677 186.95557761192322 69.898690700531 183.66279196739197C72.01200318336487 180.91722893714905 76.47175681591034 182.85315799713135 78.97577774524689 185.61578345298767C82.84964752197266 189.8897898197174 81.0209174156189 200.5792682170868 81.0209174156189 200.5792682170868 Z M49.80925810337067 174.16365838050842C57.40013313293457 175.7292890548706 62.64014136791229 180.48865580558777 64.38232553005219 185.9563319683075C64.70714104175568 186.97649002075195 64.9296749830246 187.99166059494019 65.0657970905304 188.99676871299744C64.05590069293976 188.88870668411255 63.033621430397034 188.69445753097534 62.00356376171112 188.3983588218689C56.48858439922333 186.8037657737732 51.583449959754944 181.70087552070618 49.80925810337067 174.16365838050842 Z M66.22513723373413 207.47432565689087C66.70279395580292 207.75091195106506 67.14839828014374 208.06451058387756 67.56829810142517 208.40470910072327C61.58402156829834 206.08903169631958 54.356407046318054 210.04488945007324 50.268675804138184 217.0895712375641C46.18089985847473 224.13407802581787 46.6656197309494 231.79851961135864 51.65090751647949 235.83566451072693C51.14678633213043 235.64054036140442 50.65303635597229 235.41024136543274 50.17524552345276 235.13348007202148C44.02449321746826 231.57137060165405 42.63117504119873 222.49197268486023 47.06312310695648 214.85413098335266C51.49520528316498 207.2162892818451 60.07434022426605 203.91204118728638 66.22513723373413 207.47432565689087 Z">
    </path>
</svg>