<svg xmlns="http://www.w3.org/2000/svg" preserveAspectRatio="none"
    viewBox="3.534555956703622 1.9645793544780707 91.04188843073229 18.0001675939579" width="91.04188843073229"
    height="18.0001675939579">
    <path fill="rgb(238, 179, 113)" fill-rule="nonzero"
        d="M17.542105078697205 9.964891195297241C17.542105078697205 9.964891195297241 94.57644438743591 9.964891195297241 94.57644438743591 9.964891195297241C94.57644438743591 9.964891195297241 94.57644438743591 9.964891195297241 94.57644438743591 9.964891195297241C94.57644438743591 9.964891195297241 94.57644438743591 11.96469497680664 94.57644438743591 11.96469497680664C94.57644438743591 11.96469497680664 94.57644438743591 11.96469497680664 94.57644438743591 11.96469497680664C94.57644438743591 11.96469497680664 17.542105078697205 11.96469497680664 17.542105078697205 11.96469497680664C17.542105078697205 11.96469497680664 17.542105078697205 11.96469497680664 17.542105078697205 11.96469497680664C17.542105078697205 11.96469497680664 17.542105078697205 9.964891195297241 17.542105078697205 9.964891195297241C17.542105078697205 9.964891195297241 17.542105078697205 9.964891195297241 17.542105078697205 9.964891195297241 Z M6.813939571380615 10.968774318695068C1.6103646755218506 13.29862666130066 2.824466586112976 19.921035289764404 8.863951921463013 19.96461009979248C12.180950403213501 19.988759994506836 13.420890927314758 16.811211347579956 14.746885657310486 14.695558071136475C16.032915472984314 12.644042015075684 17.792086958885193 11.18393588066101 18.541049122810364 10.955124378204346C17.807286143302917 10.759212732315063 15.9983149766922 9.132944822311401 14.710944056510925 7.233940601348877C13.303365468978882 5.157399654388428 12.144874691963196 1.9406511783599854 8.82796561717987 1.9647135734558105C2.7734599113464355 2.008638381958008 1.817878246307373 8.746196508407593 6.813939571380615 10.968774318695068 Z">
    </path>
</svg>