<svg xmlns="http://www.w3.org/2000/svg" preserveAspectRatio="none"
    viewBox="1.6462575197219849 1.9645777117855026 91.04177309713182 18.00016758207145" width="91.04177309713182"
    height="18.00016758207145">
    <path fill="rgb(238, 179, 113)" fill-rule="nonzero"
        d="M1.6462575197219849 9.964891195297241C1.6462575197219849 9.964891195297241 78.6805968284607 9.964891195297241 78.6805968284607 9.964891195297241C78.6805968284607 9.964891195297241 78.6805968284607 9.964891195297241 78.6805968284607 9.964891195297241C78.6805968284607 9.964891195297241 78.6805968284607 11.96469497680664 78.6805968284607 11.96469497680664C78.6805968284607 11.96469497680664 78.6805968284607 11.96469497680664 78.6805968284607 11.96469497680664C78.6805968284607 11.96469497680664 1.6462575197219849 11.96469497680664 1.6462575197219849 11.96469497680664C1.6462575197219849 11.96469497680664 1.6462575197219849 11.96469497680664 1.6462575197219849 11.96469497680664C1.6462575197219849 11.96469497680664 1.6462575197219849 9.964891195297241 1.6462575197219849 9.964891195297241C1.6462575197219849 9.964891195297241 1.6462575197219849 9.964891195297241 1.6462575197219849 9.964891195297241 Z M89.40862822532654 10.960549354553223C94.61224782466888 8.630784511566162 93.39810121059418 2.008375883102417 87.35861587524414 1.9647135734558105C84.04157269001007 1.9406511783599854 82.8016768693924 5.118199825286865 81.47568213939667 7.233940601348877C80.18965232372284 9.285369157791138 78.43048083782196 10.74547529220581 77.68156337738037 10.974286794662476C78.41528165340424 11.170198440551758 80.22425282001495 12.79646635055542 81.51162374019623 14.695558071136475C82.91920232772827 16.772011518478394 84.07769310474396 19.988759994506836 87.39464688301086 19.96461009979248C93.4491525888443 19.920772790908813 94.40468955039978 13.183214664459229 89.40862822532654 10.960549354553223 Z">
    </path>
</svg>